<?xml version="1.0" encoding="utf-8"?>
<!-- Generator: Adobe Illustrator 16.0.0, SVG Export Plug-In . SVG Version: 6.00 Build 0)  -->
<!DOCTYPE svg PUBLIC "-//W3C//DTD SVG 1.1//EN" "http://www.w3.org/Graphics/SVG/1.1/DTD/svg11.dtd">
<svg version="1.1"
	 id="svg3025" xmlns:inkscape="http://www.inkscape.org/namespaces/inkscape" xmlns:svg="http://www.w3.org/2000/svg" xmlns:cc="http://creativecommons.org/ns#" xmlns:sodipodi="http://sodipodi.sourceforge.net/DTD/sodipodi-0.dtd" xmlns:rdf="http://www.w3.org/1999/02/22-rdf-syntax-ns#" xmlns:dc="http://purl.org/dc/elements/1.1/" inkscape:version="0.48.3.1 r9886" sodipodi:docname="calendar_font_awesome.svg"
	 xmlns="http://www.w3.org/2000/svg" xmlns:xlink="http://www.w3.org/1999/xlink" x="0px" y="0px" width="640px" height="480px"
	 viewBox="0 0 640 480" enable-background="new 0 0 640 480" xml:space="preserve">
<sodipodi:namedview  borderopacity="1" bordercolor="#666666" pagecolor="#ffffff" objecttolerance="10" gridtolerance="10" guidetolerance="10" showgrid="false" inkscape:zoom="0.13169643" inkscape:cx="896" inkscape:cy="896" id="namedview3031" inkscape:pageshadow="2" inkscape:window-width="640" inkscape:window-height="480" inkscape:pageopacity="0" inkscape:window-y="25" inkscape:window-x="0" inkscape:window-maximized="0" inkscape:current-layer="svg3025">
	</sodipodi:namedview>
<g id="g3027" transform="matrix(1,0,0,-1,91.118644,1297.8644)">
	<path id="path3029" inkscape:connector-curvature="0" fill="#2196F3" d="M46.222,858.6h74.724v74.724H46.222V858.6z M137.552,858.6
		h83.027v74.724h-83.027V858.6z M46.222,949.929h74.724v83.026H46.222V949.929z M137.552,949.929h83.027v83.026h-83.027V949.929z
		 M46.222,1049.562h74.724v74.724H46.222V1049.562z M237.184,858.6h83.027v74.724h-83.027V858.6z M137.552,1049.562h83.027v74.724
		h-83.027V1049.562z M336.817,858.6h74.724v74.724h-74.724V858.6z M237.184,949.929h83.027v83.026h-83.027V949.929z
		 M145.854,1174.102v74.725c0,2.249-0.822,4.194-2.465,5.838c-1.643,1.643-3.589,2.465-5.838,2.465h-16.605
		c-2.249,0-4.194-0.822-5.838-2.465c-1.643-1.644-2.465-3.589-2.465-5.838v-74.725c0-2.249,0.822-4.194,2.465-5.838
		c1.644-1.643,3.589-2.465,5.838-2.465h16.605c2.249,0,4.195,0.822,5.838,2.465C145.033,1169.907,145.854,1171.853,145.854,1174.102
		z M336.817,949.929h74.724v83.026h-74.724V949.929z M237.184,1049.562h83.027v74.724h-83.027V1049.562z M336.817,1049.562h74.724
		v74.724h-74.724V1049.562z M345.12,1174.102v74.725c0,2.249-0.822,4.194-2.465,5.838c-1.644,1.643-3.59,2.465-5.838,2.465h-16.605
		c-2.249,0-4.194-0.822-5.838-2.465c-1.644-1.644-2.465-3.589-2.465-5.838v-74.725c0-2.249,0.821-4.194,2.465-5.838
		c1.644-1.643,3.589-2.465,5.838-2.465h16.605c2.248,0,4.194,0.822,5.838,2.465C344.297,1169.907,345.12,1171.853,345.12,1174.102z
		 M444.751,1190.707V858.6c0-8.995-3.286-16.779-9.859-23.352c-6.573-6.573-14.356-9.859-23.352-9.859H46.222
		c-8.995,0-16.778,3.286-23.352,9.859c-6.573,6.572-9.859,14.356-9.859,23.352v332.107c0,8.995,3.287,16.778,9.859,23.352
		c6.573,6.573,14.357,9.859,23.352,9.859h33.21v24.908c0,11.416,4.065,21.189,12.195,29.319c8.13,8.129,17.903,12.194,29.319,12.194
		h16.605c11.416,0,21.189-4.065,29.319-12.194c8.13-8.13,12.195-17.903,12.195-29.319v-24.908h99.632v24.908
		c0,11.416,4.064,21.189,12.194,29.319c8.13,8.129,17.903,12.194,29.319,12.194h16.605c11.416,0,21.188-4.065,29.318-12.194
		c8.13-8.13,12.195-17.903,12.195-29.319v-24.908h33.21c8.995,0,16.778-3.287,23.352-9.859
		C441.465,1207.485,444.751,1199.702,444.751,1190.707z"/>
</g>
</svg>
