<?xml version="1.0" encoding="utf-8"?>
<!-- Generator: Adobe Illustrator 16.0.0, SVG Export Plug-In . SVG Version: 6.00 Build 0)  -->
<!DOCTYPE svg PUBLIC "-//W3C//DTD SVG 1.1//EN" "http://www.w3.org/Graphics/SVG/1.1/DTD/svg11.dtd">
<svg version="1.1" xmlns="http://www.w3.org/2000/svg" xmlns:xlink="http://www.w3.org/1999/xlink" x="0px" y="0px" width="640px"
	 height="480px" viewBox="0 0 640 480" enable-background="new 0 0 640 480" xml:space="preserve">
<g id="Layer_1">
	<path fill="#2196F3" stroke="#2196F3" stroke-miterlimit="10" d="M568.5,372.135c0,6.277-5.088,11.365-11.365,11.365H75.865
		c-6.277,0-11.365-5.088-11.365-11.365V48.865c0-6.277,5.088-11.365,11.365-11.365h481.27c6.277,0,11.365,5.088,11.365,11.365
		V372.135z"/>
	<path fill="none" stroke="#2196F3" stroke-miterlimit="10" d="M529.5,342.5c0,6.627-5.373,12-12,12h-401c-6.627,0-12-5.373-12-12
		v-261c0-6.627,5.373-12,12-12h401c6.627,0,12,5.373,12,12V342.5z"/>
	<rect x="274.5" y="370.5" fill="#2196F3" stroke="#2196F3" stroke-miterlimit="10" width="91" height="88"/>
</g>
<g id="Layer_2">
	<path opacity="0.7" fill="#FFFFFF" stroke="#2196F3" stroke-miterlimit="10" d="M523.5,309.355c0,7.26-5.885,13.145-13.145,13.145
		H125.645c-7.26,0-13.145-5.885-13.145-13.145V70.645c0-7.26,5.885-13.145,13.145-13.145h384.711c7.26,0,13.145,5.885,13.145,13.145
		V309.355z"/>
</g>
</svg>
