<?xml version="1.0" encoding="utf-8"?>
<!-- Generator: Adobe Illustrator 16.0.0, SVG Export Plug-In . SVG Version: 6.00 Build 0)  -->
<!DOCTYPE svg PUBLIC "-//W3C//DTD SVG 1.1//EN" "http://www.w3.org/Graphics/SVG/1.1/DTD/svg11.dtd">
<svg version="1.1" id="Capa_1" xmlns="http://www.w3.org/2000/svg" xmlns:xlink="http://www.w3.org/1999/xlink" x="0px" y="0px"
	 width="640px" height="480px" viewBox="0 0 640 480" enable-background="new 0 0 640 480" xml:space="preserve">
<g>
	<path opacity="0.95" fill="#2196F3" enable-background="new    " d="M479.639,2.83L272.016,66.35
		c-25.154,7.176-45.542,33.414-45.542,58.568v215.977c0,0,0,2.953,0,3.027c0,0-15.044-10.146-48.551-5.399
		c-49.206,6.987-89.104,44.758-89.104,84.377c0,39.616,39.899,63.893,89.104,56.901c49.243-6.951,85.329-43.561,85.329-83.196
		c0,0,0-169.425,0-186.992c0-17.567,21.117-25.098,21.117-25.098l183.572-57.54c0,0,20.312-6.821,20.312,11.979s0,150.083,0,150.083
		s0,0.037,0,0.112c0,0-18.707-10.766-52.214-6.69c-49.206,5.963-89.104,42.945-89.104,82.545c0,39.637,39.897,64.717,89.104,58.736
		c49.242-5.961,89.142-42.926,89.142-82.562V35.383C525.182,10.229,504.774-4.347,479.639,2.83z"/>
</g>
</svg>
